<?xml version="1.0" encoding="UTF-8" standalone="no"?>
<!DOCTYPE svg PUBLIC "-//W3C//DTD SVG 20010904//EN"
              "http://www.w3.org/TR/2001/REC-SVG-20010904/DTD/svg10.dtd">

<svg xmlns="http://www.w3.org/2000/svg"
     width="3.33333in" height="3.33333in"
     viewBox="0 0 1000 1000">
  <path id="Selection"
        fill="none" stroke="black" stroke-width="1"
        d="M 16.76,447.34
           C 16.76,447.34 17.52,438.85 17.52,438.85
             17.52,438.85 18.94,423.59 18.94,423.59
             18.94,423.59 19.56,416.99 19.56,416.99
             19.69,415.72 19.69,414.38 20.28,413.21
             21.04,411.72 21.93,411.75 23.37,411.61
             23.37,411.61 25.41,411.48 25.41,411.48
             25.41,411.48 27.77,411.33 27.77,411.33
             27.77,411.33 33.43,411.01 33.43,411.01
             33.43,411.01 37.36,410.70 37.36,410.70
             37.36,410.70 38.78,410.70 38.78,410.70
             38.78,410.70 44.44,410.24 44.44,410.24
             44.44,410.24 70.08,408.21 70.08,408.21
             78.43,407.40 86.77,406.59 95.09,405.39
             99.97,404.69 104.94,403.95 109.72,402.69
             125.29,398.60 140.34,392.88 155.33,387.07
             175.24,379.36 194.88,371.00 214.94,363.66
             223.69,360.46 232.48,357.28 241.36,354.44
             266.12,346.53 290.69,340.00 316.23,335.07
             326.60,333.07 337.03,331.16 347.53,330.03
             347.53,330.03 359.33,328.88 359.33,328.88
             359.33,328.88 368.45,328.12 368.45,328.12
             368.45,328.12 369.86,328.12 369.86,328.12
             369.86,328.12 374.90,327.81 374.90,327.81
             374.90,327.81 377.26,327.65 377.26,327.65
             377.26,327.65 380.40,327.49 380.40,327.49
             380.40,327.49 385.75,327.34 385.75,327.34
             385.75,327.34 388.42,327.18 388.42,327.18
             388.42,327.18 391.41,327.18 391.41,327.18
             391.41,327.18 393.93,327.02 393.93,327.02
             393.93,327.02 399.28,327.02 399.28,327.02
             399.28,327.02 401.79,326.86 401.79,326.86
             401.79,326.86 428.37,326.86 428.37,326.86
             428.37,326.86 430.73,327.02 430.73,327.02
             430.73,327.02 435.45,327.02 435.45,327.02
             435.45,327.02 437.81,327.18 437.81,327.18
             437.81,327.18 440.49,327.18 440.49,327.18
             440.49,327.18 442.37,327.33 442.37,327.33
             442.37,327.33 444.57,327.33 444.57,327.33
             444.57,327.33 446.93,327.50 446.93,327.50
             446.93,327.50 449.14,327.50 449.14,327.50
             449.14,327.50 451.02,327.65 451.02,327.65
             451.02,327.65 457.47,327.96 457.47,327.96
             457.47,327.96 461.40,328.26 461.40,328.26
             461.40,328.26 465.02,328.45 465.02,328.45
             465.02,328.45 470.05,328.89 470.05,328.89
             470.05,328.89 484.84,330.30 484.84,330.30
             484.84,330.30 499.94,332.17 499.94,332.17
             521.28,335.24 546.21,340.05 566.47,347.26
             573.07,349.61 579.65,352.03 586.13,354.70
             618.22,367.94 648.78,384.39 678.77,401.80
             688.86,407.65 698.78,413.79 708.66,419.98
             708.66,419.98 718.09,426.02 718.09,426.02
             720.12,427.29 721.08,428.26 723.44,429.04
             724.94,429.54 727.50,429.72 729.10,429.73
             729.10,429.73 731.93,429.89 731.93,429.89
             731.93,429.89 736.02,430.19 736.02,430.19
             736.02,430.19 742.00,430.53 742.00,430.53
             742.00,430.53 749.55,431.13 749.55,431.13
             762.52,432.02 775.46,433.28 788.40,434.58
             803.63,436.10 818.86,437.92 834.01,440.15
             834.01,440.15 848.48,442.40 848.48,442.40
             848.48,442.40 868.46,445.96 868.46,445.96
             874.93,447.21 881.40,448.54 887.80,450.12
             901.51,453.50 915.17,457.65 927.91,463.82
             927.91,463.82 936.88,468.38 936.88,468.38
             937.95,468.97 940.22,470.09 940.97,470.94
             933.56,472.33 925.06,474.84 919.10,479.59
             915.54,482.42 912.55,486.84 912.50,491.54
             912.39,500.90 920.16,506.66 927.75,510.45
             933.30,513.23 939.94,515.28 946.00,516.62
             951.68,517.87 957.36,518.69 963.14,519.25
             963.14,519.25 967.07,519.55 967.07,519.55
             967.07,519.55 968.65,519.70 968.65,519.70
             968.65,519.70 970.38,519.70 970.38,519.70
             970.38,519.70 972.27,519.85 972.27,519.85
             972.27,519.85 980.44,519.85 980.44,519.85
             980.44,519.85 983.59,519.69 983.59,519.69
             984.15,519.69 985.80,519.43 986.15,519.69
             986.44,519.91 986.67,520.75 986.79,521.11
             987.22,522.45 987.50,523.82 987.75,525.20
             988.29,528.23 988.58,531.25 988.79,534.32
             988.79,534.32 988.94,535.89 988.94,535.89
             988.94,535.89 989.09,539.04 989.09,539.04
             989.09,539.04 989.09,541.87 989.09,541.87
             989.09,541.87 989.25,544.07 989.25,544.07
             989.25,544.07 989.25,548.95 989.25,548.95
             989.25,548.95 989.09,551.62 989.09,551.62
             989.09,551.62 989.09,555.24 989.09,555.24
             989.09,555.24 988.94,557.13 988.94,557.13
             988.94,557.13 988.94,559.17 988.94,559.17
             988.94,559.17 988.79,560.90 988.79,560.90
             988.79,560.90 988.79,562.48 988.79,562.48
             988.79,562.48 988.62,565.15 988.62,565.15
             988.62,565.15 988.32,569.24 988.32,569.24
             988.32,569.24 987.98,574.59 987.98,574.59
             987.98,574.59 987.69,577.58 987.69,577.58
             987.69,577.58 986.92,586.07 986.92,586.07
             986.66,588.62 986.72,590.67 985.06,592.83
             982.85,595.69 980.63,595.58 977.46,596.10
             977.46,596.10 963.77,598.40 963.77,598.40
             963.77,598.40 938.45,602.49 938.45,602.49
             938.45,602.49 923.82,604.67 923.82,604.67
             923.82,604.67 909.35,606.54 909.35,606.54
             909.35,606.54 902.75,607.16 902.75,607.16
             902.75,607.16 900.70,607.30 900.70,607.30
             900.70,607.30 900.99,604.16 900.99,604.16
             900.99,604.16 901.33,598.81 901.33,598.81
             901.33,598.81 901.49,596.45 901.49,596.45
             901.49,596.45 901.33,590.94 901.33,590.94
             901.33,590.94 901.19,589.37 901.19,589.37
             900.91,585.29 900.39,581.26 899.51,577.26
             897.09,566.24 892.92,556.13 886.60,546.75
             878.83,535.22 868.27,525.57 856.03,518.96
             831.12,505.48 800.46,505.61 775.82,519.67
             769.74,523.14 764.43,527.02 759.30,531.79
             759.30,531.79 756.32,534.64 756.32,534.64
             743.72,547.81 735.31,564.39 732.63,582.45
             732.63,582.45 731.78,591.10 731.78,591.10
             731.78,591.10 731.62,596.29 731.62,596.29
             731.62,596.29 731.77,597.87 731.77,597.87
             731.77,597.87 731.77,599.60 731.77,599.60
             731.77,599.60 731.93,602.27 731.93,602.27
             731.93,602.27 719.51,602.27 719.51,602.27
             719.51,602.27 717.15,602.11 717.15,602.11
             717.15,602.11 691.83,602.11 691.83,602.11
             691.83,602.11 689.47,601.95 689.47,601.95
             689.47,601.95 664.30,601.95 664.30,601.95
             664.30,601.95 661.94,601.80 661.94,601.80
             661.94,601.80 636.62,601.80 636.62,601.80
             636.62,601.80 634.26,601.64 634.26,601.64
             634.26,601.64 609.09,601.64 609.09,601.64
             609.09,601.64 606.74,601.48 606.74,601.48
             606.74,601.48 581.41,601.48 581.41,601.48
             581.41,601.48 579.05,601.33 579.05,601.33
             579.05,601.33 553.89,601.33 553.89,601.33
             553.89,601.33 551.53,601.17 551.53,601.17
             551.53,601.17 526.21,601.17 526.21,601.17
             526.21,601.17 523.85,601.01 523.85,601.01
             523.85,601.01 498.68,601.01 498.68,601.01
             498.68,601.01 496.32,600.85 496.32,600.85
             496.32,600.85 471.00,600.85 471.00,600.85
             471.00,600.85 468.64,600.70 468.64,600.70
             468.64,600.70 443.47,600.70 443.47,600.70
             443.47,600.70 441.11,600.54 441.11,600.54
             441.11,600.54 415.79,600.54 415.79,600.54
             415.79,600.54 413.43,600.38 413.43,600.38
             413.43,600.38 388.27,600.38 388.27,600.38
             388.27,600.38 385.91,600.22 385.91,600.22
             385.91,600.22 360.74,600.22 360.74,600.22
             360.74,600.22 358.38,600.07 358.38,600.07
             358.38,600.07 333.06,600.07 333.06,600.07
             333.06,600.07 330.70,599.91 330.70,599.91
             330.70,599.91 305.53,599.91 305.53,599.91
             305.53,599.91 303.18,599.75 303.18,599.75
             303.18,599.75 295.31,599.75 295.31,599.75
             295.31,599.75 295.47,593.15 295.47,593.15
             295.47,593.15 295.31,590.00 295.31,590.00
             295.31,590.00 294.73,584.18 294.73,584.18
             294.01,578.66 292.89,573.92 291.23,568.61
             288.09,558.63 282.51,548.33 275.82,540.30
             267.91,530.81 258.72,523.23 247.65,517.69
             240.26,514.00 232.21,511.44 224.06,510.09
             224.06,510.09 216.67,509.16 216.67,509.16
             216.67,509.16 215.41,509.16 215.41,509.16
             215.41,509.16 213.84,509.00 213.84,509.00
             213.84,509.00 207.70,509.00 207.70,509.00
             207.70,509.00 205.82,509.16 205.82,509.16
             205.82,509.16 204.56,509.16 204.56,509.16
             201.20,509.40 197.79,509.89 194.49,510.54
             179.49,513.48 164.94,520.93 153.75,531.35
             145.54,539.00 139.09,547.83 134.21,557.91
             130.84,564.87 128.48,572.33 127.11,579.93
             126.51,583.26 126.06,586.63 125.91,590.00
             125.91,590.00 125.76,592.05 125.76,592.05
             125.76,592.05 125.76,594.88 125.76,594.88
             123.87,594.86 117.43,593.74 115.22,593.37
             115.22,593.37 95.09,589.59 95.09,589.59
             76.01,585.78 56.99,581.68 37.99,577.48
             37.99,577.48 16.45,572.60 16.45,572.60
             16.45,572.60 13.14,571.82 13.14,571.82
             10.72,571.28 8.97,571.01 7.18,569.08
             5.24,566.99 5.61,565.01 5.88,562.48
             5.88,562.48 6.82,553.35 6.82,553.35
             6.82,553.35 9.24,527.09 9.24,527.09
             9.24,527.09 10.64,512.14 10.64,512.14
             10.64,512.14 11.23,506.17 11.23,506.17
             11.23,506.17 11.77,500.03 11.77,500.03
             11.77,500.03 12.04,497.52 12.04,497.52
             12.06,497.17 12.02,496.65 12.31,496.42
             12.56,496.22 13.15,496.26 13.46,496.26
             13.46,496.26 14.40,496.26 14.40,496.26
             14.40,496.26 15.97,496.12 15.97,496.12
             15.97,496.12 18.18,495.97 18.18,495.97
             30.84,494.70 41.72,490.03 51.52,481.88
             54.11,479.72 56.60,477.34 58.90,474.87
             58.90,474.87 62.22,471.09 62.22,471.09
             62.22,471.09 14.56,471.09 14.56,471.09
             14.56,471.09 14.85,467.48 14.85,467.48
             14.85,467.48 15.21,463.07 15.21,463.07
             15.21,463.07 15.66,457.72 15.66,457.72
             15.66,457.72 70.08,457.72 70.08,457.72
             70.39,457.72 70.89,457.74 71.17,457.63
             71.90,457.35 72.59,455.74 72.98,455.05
             72.98,455.05 77.00,447.34 77.00,447.34
             77.00,447.34 16.76,447.34 16.76,447.34 Z
           M 417.52,361.51
           C 417.52,361.51 412.02,361.62 412.02,361.62
             412.02,361.62 409.50,361.62 409.50,361.62
             409.50,361.62 406.98,361.78 406.98,361.78
             406.98,361.78 404.15,361.78 404.15,361.78
             404.15,361.78 402.26,361.93 402.26,361.93
             402.26,361.93 399.91,361.93 399.91,361.93
             399.91,361.93 397.23,362.10 397.23,362.10
             397.23,362.10 390.15,362.41 390.15,362.41
             390.15,362.41 388.42,362.56 388.42,362.56
             388.42,362.56 379.77,363.18 379.77,363.18
             369.28,363.92 358.83,365.48 348.47,367.35
             333.54,370.05 315.70,374.11 301.13,378.30
             285.31,382.84 269.66,387.83 254.26,393.64
             254.26,393.64 244.67,397.29 244.67,397.29
             242.27,398.24 240.51,399.13 240.58,402.05
             240.61,403.35 241.39,404.81 241.95,405.98
             241.95,405.98 243.91,410.22 243.91,410.22
             244.70,411.88 244.88,412.81 246.71,413.64
             248.16,414.29 248.49,414.05 249.86,414.18
             249.86,414.18 252.53,414.31 252.53,414.31
             252.53,414.31 254.42,414.46 254.42,414.46
             254.42,414.46 256.30,414.46 256.30,414.46
             256.30,414.46 258.66,414.63 258.66,414.63
             258.66,414.63 266.69,414.94 266.69,414.94
             266.69,414.94 269.36,415.10 269.36,415.10
             269.36,415.10 272.82,415.26 272.82,415.26
             272.82,415.26 281.00,415.57 281.00,415.57
             281.00,415.57 283.20,415.73 283.20,415.73
             283.20,415.73 288.08,415.89 288.08,415.89
             288.08,415.89 290.44,416.04 290.44,416.04
             290.44,416.04 294.05,416.20 294.05,416.20
             294.05,416.20 297.51,416.36 297.51,416.36
             297.51,416.36 302.23,416.52 302.23,416.52
             302.23,416.52 304.59,416.67 304.59,416.67
             304.59,416.67 308.21,416.83 308.21,416.83
             308.21,416.83 312.93,416.99 312.93,416.99
             312.93,416.99 315.13,417.14 315.13,417.14
             315.13,417.14 320.00,417.30 320.00,417.30
             320.00,417.30 322.36,417.46 322.36,417.46
             322.36,417.46 325.82,417.62 325.82,417.62
             325.82,417.62 329.44,417.77 329.44,417.77
             329.44,417.77 334.16,417.93 334.16,417.93
             334.16,417.93 335.73,418.08 335.73,418.08
             335.73,418.08 337.62,418.08 337.62,418.08
             337.62,418.08 339.98,418.25 339.98,418.25
             339.98,418.25 343.60,418.40 343.60,418.40
             343.60,418.40 347.06,418.56 347.06,418.56
             347.06,418.56 351.78,418.72 351.78,418.72
             351.78,418.72 354.14,418.87 354.14,418.87
             354.14,418.87 362.00,419.19 362.00,419.19
             362.00,419.19 364.67,419.35 364.67,419.35
             364.67,419.35 368.29,419.50 368.29,419.50
             368.29,419.50 371.75,419.66 371.75,419.66
             371.75,419.66 375.37,419.82 375.37,419.82
             375.37,419.82 380.09,419.98 380.09,419.98
             380.09,419.98 382.29,420.13 382.29,420.13
             382.29,420.13 387.17,420.29 387.17,420.29
             387.17,420.29 389.52,420.45 389.52,420.45
             389.52,420.45 392.99,420.61 392.99,420.61
             392.99,420.61 396.60,420.76 396.60,420.76
             396.60,420.76 401.32,420.92 401.32,420.92
             401.32,420.92 403.68,421.08 403.68,421.08
             403.68,421.08 411.54,421.39 411.54,421.39
             411.54,421.39 414.22,421.56 414.22,421.56
             414.22,421.56 415.95,421.56 415.95,421.56
             415.95,421.56 417.52,421.71 417.52,421.71
             420.90,421.74 423.49,419.95 423.50,416.36
             423.50,416.36 423.50,373.89 423.50,373.89
             423.50,373.89 423.50,366.66 423.50,366.66
             423.49,364.18 421.90,362.05 419.41,361.61
             418.63,361.47 418.31,361.44 417.52,361.51 Z
           M 443.95,361.83
           C 443.39,361.96 442.88,362.12 442.37,362.39
             439.30,364.09 439.70,366.85 439.70,369.80
             439.70,369.80 439.70,376.72 439.70,376.72
             439.70,376.72 439.70,417.30 439.70,417.30
             439.70,418.07 439.70,418.44 439.93,419.19
             440.19,420.06 440.62,420.74 441.28,421.38
             443.05,423.09 444.99,422.94 447.25,422.96
             447.25,422.96 449.61,423.12 449.61,423.12
             449.61,423.12 457.63,423.44 457.63,423.44
             457.63,423.44 460.30,423.60 460.30,423.60
             460.30,423.60 462.03,423.60 462.03,423.60
             462.03,423.60 463.76,423.75 463.76,423.75
             463.76,423.75 467.38,423.91 467.38,423.91
             467.38,423.91 469.11,423.91 469.11,423.91
             469.11,423.91 470.68,424.06 470.68,424.06
             470.68,424.06 475.40,424.22 475.40,424.22
             475.40,424.22 478.86,424.38 478.86,424.38
             478.86,424.38 482.48,424.54 482.48,424.54
             482.48,424.54 484.84,424.70 484.84,424.70
             484.84,424.70 486.73,424.70 486.73,424.70
             486.73,424.70 488.46,424.86 488.46,424.86
             488.46,424.86 490.34,424.86 490.34,424.86
             490.34,424.86 492.23,425.01 492.23,425.01
             492.23,425.01 496.79,425.17 496.79,425.17
             496.79,425.17 498.52,425.32 498.52,425.32
             498.52,425.32 500.41,425.32 500.41,425.32
             500.41,425.32 502.77,425.48 502.77,425.48
             502.77,425.48 506.39,425.64 506.39,425.64
             506.39,425.64 509.85,425.80 509.85,425.80
             509.85,425.80 514.57,425.95 514.57,425.95
             514.57,425.95 516.93,426.11 516.93,426.11
             516.93,426.11 524.95,426.42 524.95,426.42
             524.95,426.42 527.62,426.58 527.62,426.58
             527.62,426.58 531.08,426.74 531.08,426.74
             531.08,426.74 534.70,426.90 534.70,426.90
             534.70,426.90 539.42,427.05 539.42,427.05
             539.42,427.05 541.62,427.21 541.62,427.21
             541.62,427.21 546.50,427.37 546.50,427.37
             546.50,427.37 548.85,427.53 548.85,427.53
             548.85,427.53 552.47,427.68 552.47,427.68
             552.47,427.68 555.93,427.84 555.93,427.84
             555.93,427.84 560.65,428.00 560.65,428.00
             560.65,428.00 563.01,428.15 563.01,428.15
             563.01,428.15 566.63,428.31 566.63,428.31
             566.63,428.31 570.09,428.47 570.09,428.47
             570.09,428.47 574.81,428.63 574.81,428.63
             574.81,428.63 576.38,428.78 576.38,428.78
             576.38,428.78 578.11,428.78 578.11,428.78
             578.11,428.78 580.78,428.94 580.78,428.94
             580.78,428.94 584.24,429.10 584.24,429.10
             584.24,429.10 592.42,429.41 592.42,429.41
             592.42,429.41 594.94,429.57 594.94,429.57
             594.94,429.57 602.80,429.88 602.80,429.88
             602.80,429.88 605.48,430.05 605.48,430.05
             605.48,430.05 607.21,430.05 607.21,430.05
             607.21,430.05 608.94,430.20 608.94,430.20
             608.94,430.20 616.96,430.51 616.96,430.51
             616.96,430.51 620.58,430.67 620.58,430.67
             620.58,430.67 622.94,430.84 622.94,430.84
             622.94,430.84 624.82,430.84 624.82,430.84
             624.82,430.84 626.71,430.99 626.71,430.99
             626.71,430.99 630.33,431.14 630.33,431.14
             630.33,431.14 633.79,431.30 633.79,431.30
             633.79,431.30 637.41,431.46 637.41,431.46
             637.41,431.46 645.43,431.77 645.43,431.77
             645.43,431.77 647.79,431.94 647.79,431.94
             647.79,431.94 649.67,431.94 649.67,431.94
             649.67,431.94 651.09,432.08 651.09,432.08
             651.09,432.08 652.98,431.94 652.98,431.94
             654.42,431.84 655.65,431.87 657.07,431.40
             658.02,431.09 658.92,430.58 658.76,429.41
             658.61,428.32 657.10,427.01 656.28,426.34
             653.89,424.41 650.35,422.70 647.63,421.17
             639.80,416.75 631.76,412.63 623.72,408.61
             623.72,408.61 610.98,402.31 610.98,402.31
             610.98,402.31 602.65,398.32 602.65,398.32
             602.65,398.32 592.27,393.60 592.27,393.60
             592.27,393.60 581.41,388.92 581.41,388.92
             571.35,384.70 561.14,380.73 550.74,377.41
             531.22,371.17 506.21,366.47 485.78,364.43
             485.78,364.43 468.17,362.87 468.17,362.87
             468.17,362.87 461.09,362.41 461.09,362.41
             461.09,362.41 459.04,362.25 459.04,362.25
             459.04,362.25 454.48,362.09 454.48,362.09
             454.48,362.09 452.12,361.94 452.12,361.94
             452.12,361.94 443.95,361.83 443.95,361.83 Z
           M 980.13,506.95
           C 980.13,506.95 974.47,506.95 974.47,506.95
             974.47,506.95 972.58,506.80 972.58,506.80
             972.58,506.80 970.38,506.80 970.38,506.80
             970.38,506.80 968.65,506.65 968.65,506.65
             968.65,506.65 959.37,505.88 959.37,505.88
             952.40,505.18 945.42,503.93 938.76,501.71
             935.66,500.68 931.57,498.94 929.17,496.72
             927.96,495.59 926.89,494.37 926.82,492.64
             926.70,489.79 928.76,487.92 931.06,486.62
             935.13,484.30 941.04,483.26 945.68,482.71
             945.68,482.71 951.19,482.25 951.19,482.25
             951.19,482.25 953.71,482.10 953.71,482.10
             953.71,482.10 956.06,481.95 956.06,481.95
             956.60,481.94 957.65,481.89 958.11,482.08
             958.75,482.34 959.48,483.18 960.00,483.66
             960.00,483.66 963.61,487.14 963.61,487.14
             967.97,491.49 972.12,496.07 975.86,500.98
             976.85,502.28 979.58,505.66 980.13,506.95 Z
           M 207.39,522.12
           C 210.00,521.80 212.79,522.18 215.41,522.21
             215.41,522.21 216.98,522.35 216.98,522.35
             220.64,522.62 224.28,523.31 227.84,524.20
             253.26,530.55 272.80,550.70 279.61,575.85
             280.87,580.49 281.63,585.20 281.96,590.00
             281.96,590.00 282.10,591.57 282.10,591.57
             282.10,591.57 282.10,598.97 282.10,598.97
             282.10,598.97 281.81,602.74 281.81,602.74
             281.16,609.26 279.79,615.63 277.47,621.77
             269.66,642.49 252.86,659.05 231.61,665.65
             226.20,667.33 220.73,668.27 215.10,668.66
             215.10,668.66 213.21,668.80 213.21,668.80
             213.21,668.80 207.70,668.80 207.70,668.80
             207.70,668.80 206.13,668.66 206.13,668.66
             199.55,668.21 194.32,667.22 188.04,665.13
             181.66,663.00 175.27,659.73 169.80,655.81
             164.61,652.11 159.91,647.78 155.87,642.85
             147.43,632.55 141.78,620.01 139.82,606.83
             139.18,602.46 138.92,598.04 138.97,593.62
             138.97,593.62 139.13,590.63 139.13,590.63
             139.13,590.63 139.87,583.87 139.87,583.87
             140.89,576.79 143.12,569.91 146.10,563.42
             147.27,560.87 148.95,557.94 150.44,555.56
             159.26,541.49 173.03,530.61 188.83,525.46
             192.98,524.11 197.55,523.11 201.88,522.57
             201.88,522.57 205.34,522.22 205.34,522.22
             205.34,522.22 207.39,522.12 207.39,522.12 Z
           M 813.41,522.09
           C 813.41,522.09 818.44,522.09 818.44,522.09
             818.44,522.09 820.49,522.20 820.49,522.20
             825.58,522.43 830.67,523.26 835.58,524.66
             860.67,531.81 879.59,551.88 885.90,577.10
             887.00,581.53 887.77,586.07 887.97,590.63
             887.97,590.63 888.12,592.36 888.12,592.36
             888.12,592.36 888.12,598.18 888.12,598.18
             888.12,598.18 887.97,600.22 887.97,600.22
             887.69,606.63 886.36,613.00 884.38,619.10
             877.45,640.52 860.35,657.93 839.04,665.18
             833.24,667.16 827.22,668.24 821.11,668.66
             821.11,668.66 819.23,668.80 819.23,668.80
             819.23,668.80 813.56,668.80 813.56,668.80
             813.56,668.80 811.99,668.66 811.99,668.66
             805.43,668.21 799.00,666.99 792.80,664.72
             783.19,661.20 775.29,656.27 767.79,649.28
             764.96,646.64 761.97,643.13 759.64,640.02
             743.86,618.95 740.56,590.27 750.88,566.09
             758.88,547.32 774.26,532.59 793.59,525.88
             798.22,524.28 803.04,523.18 807.90,522.57
             807.90,522.57 811.36,522.22 811.36,522.22
             811.36,522.22 813.41,522.09 813.41,522.09 Z
           M 207.70,555.10
           C 207.70,555.10 204.87,555.44 204.87,555.44
             201.92,555.84 199.01,556.62 196.22,557.67
             185.31,561.78 176.65,570.56 172.64,581.51
             171.55,584.48 170.31,589.53 170.27,592.67
             170.27,592.67 170.11,595.51 170.11,595.51
             170.11,595.51 170.27,597.24 170.27,597.24
             170.27,597.24 170.27,598.65 170.27,598.65
             170.39,600.26 170.65,601.95 170.97,603.53
             173.00,613.63 178.89,622.49 187.26,628.47
             190.32,630.66 194.06,632.53 197.64,633.73
             200.56,634.70 204.95,635.73 208.02,635.77
             208.02,635.77 210.85,635.92 210.85,635.92
             210.85,635.92 212.74,635.77 212.74,635.77
             217.94,635.74 225.19,633.60 229.72,631.07
             234.37,628.48 238.56,625.12 241.92,620.99
             252.34,608.16 253.87,590.50 246.03,576.00
             243.67,571.63 240.41,567.77 236.64,564.54
             232.65,561.12 227.94,558.61 222.96,556.97
             220.10,556.03 215.42,555.09 212.42,555.10
             212.42,555.10 210.38,555.10 210.38,555.10
             210.38,555.10 207.70,555.10 207.70,555.10 Z
           M 813.72,555.11
           C 813.72,555.11 810.73,555.44 810.73,555.44
             808.40,555.76 804.92,556.64 802.71,557.45
             791.64,561.51 782.88,570.15 778.71,581.19
             772.91,596.58 777.11,614.30 789.34,625.36
             793.32,628.96 797.98,631.72 803.03,633.52
             806.00,634.58 810.74,635.73 813.88,635.77
             813.88,635.77 816.55,635.92 816.55,635.92
             816.55,635.92 818.44,635.77 818.44,635.77
             824.44,635.70 831.17,633.61 836.37,630.67
             840.74,628.20 844.57,625.03 847.76,621.14
             857.26,609.54 859.67,593.44 853.76,579.62
             851.89,575.25 849.19,571.14 845.95,567.67
             842.30,563.75 837.77,560.69 832.91,558.50
             828.91,556.69 824.55,555.55 820.17,555.23
             820.17,555.23 818.44,555.11 818.44,555.11
             818.44,555.11 813.72,555.11 813.72,555.11 Z" />
</svg>
