<?xml version="1.0" encoding="UTF-8" standalone="no"?>
<!DOCTYPE svg PUBLIC "-//W3C//DTD SVG 20010904//EN"
              "http://www.w3.org/TR/2001/REC-SVG-20010904/DTD/svg10.dtd">

<svg xmlns="http://www.w3.org/2000/svg"
     width="3.26667in" height="2.34667in"
     viewBox="0 0 980 704">
  <path id="Selection"
        fill="none" stroke="black" stroke-width="1"
        d="M 251.00,30.00
           C 251.00,22.22 251.00,11.90 257.11,6.22
             262.39,1.31 266.69,2.46 273.00,1.72
             283.01,0.53 301.99,0.53 312.00,1.72
             318.62,2.50 323.32,1.10 328.79,6.34
             334.01,11.33 334.85,23.02 335.00,30.00
             335.00,30.00 375.00,30.83 375.00,30.83
             381.38,31.47 388.70,31.69 393.61,36.53
             397.20,40.07 397.60,45.30 398.27,50.00
             398.27,50.00 399.00,87.00 399.00,87.00
             399.00,87.00 400.00,102.00 400.00,102.00
             400.00,102.00 400.00,180.00 400.00,180.00
             400.00,180.00 184.00,180.00 184.00,180.00
             184.00,180.00 184.00,69.00 184.00,69.00
             184.00,69.00 185.00,55.00 185.00,55.00
             185.03,49.36 185.16,39.74 189.42,35.56
             194.22,30.83 201.85,31.33 208.00,30.91
             208.00,30.91 219.00,30.00 219.00,30.00
             219.00,30.00 251.00,30.00 251.00,30.00 Z
           M 323.00,12.96
           C 323.00,12.96 308.00,12.96 308.00,12.96
             308.00,12.96 297.00,12.00 297.00,12.00
             297.00,12.00 276.00,12.00 276.00,12.00
             273.20,12.04 264.75,12.39 263.02,14.60
             261.96,15.95 262.03,18.37 262.00,20.00
             262.00,20.00 262.00,30.00 262.00,30.00
             262.00,30.00 324.00,30.00 324.00,30.00
             324.00,30.00 323.00,12.96 323.00,12.96 Z
           M 429.00,52.00
           C 429.00,52.00 422.00,52.00 422.00,52.00
             419.62,52.00 413.65,52.48 412.72,49.63
             412.38,48.59 412.83,47.65 413.61,46.97
             416.81,44.21 427.65,45.49 430.89,47.74
             433.09,49.26 434.41,51.49 435.20,54.00
             436.81,59.13 434.97,63.68 437.60,66.42
             439.13,68.01 443.64,68.82 446.00,69.91
             454.42,73.82 456.98,77.04 457.00,86.00
             457.00,86.00 457.00,163.00 457.00,163.00
             457.00,164.99 457.12,168.10 456.40,169.91
             454.96,173.55 448.69,178.04 445.00,179.20
             440.49,180.61 418.27,180.00 412.00,180.00
             412.00,180.00 412.00,68.00 412.00,68.00
             412.00,68.00 429.00,68.00 429.00,68.00
             429.00,68.00 429.00,52.00 429.00,52.00 Z
           M 131.00,93.00
           C 131.00,85.98 130.58,76.71 136.39,71.51
             139.54,68.69 144.06,69.01 148.00,69.00
             148.00,69.00 172.00,68.00 172.00,68.00
             172.00,68.00 169.42,76.40 169.42,76.40
             169.42,76.40 161.00,78.09 161.00,78.09
             161.00,78.09 141.00,79.00 141.00,79.00
             141.00,79.00 141.00,93.00 141.00,93.00
             141.00,93.00 172.00,93.00 172.00,93.00
             172.00,93.00 172.00,180.00 172.00,180.00
             172.00,180.00 107.00,180.00 107.00,180.00
             104.88,180.00 102.00,180.09 100.00,179.49
             96.01,178.29 90.04,172.90 88.60,169.00
             87.88,167.06 88.00,164.09 88.00,162.00
             88.00,162.00 88.00,134.00 88.00,134.00
             88.00,134.00 89.00,115.00 89.00,115.00
             89.07,109.46 89.83,102.32 94.21,98.42
             100.84,92.50 122.09,93.00 131.00,93.00 Z
           M 56.00,625.00
           C 46.80,625.00 21.46,625.72 14.00,623.35
             10.36,622.19 3.00,616.46 1.60,612.91
             0.88,611.10 1.00,607.99 1.00,606.00
             1.00,606.00 1.00,552.00 1.00,552.00
             1.01,543.14 2.25,537.28 10.00,531.80
             15.40,527.98 18.82,528.81 20.83,525.70
             22.08,523.76 22.99,507.23 23.00,504.00
             23.00,504.00 23.00,268.00 23.00,268.00
             23.00,268.00 24.00,253.00 24.00,253.00
             24.00,253.00 24.00,228.00 24.00,228.00
             24.00,228.00 24.91,217.00 24.91,217.00
             25.43,209.98 25.43,202.46 31.11,197.34
             36.49,192.48 45.07,192.01 52.00,192.00
             52.00,192.00 70.00,192.00 70.00,192.00
             70.00,192.00 85.00,191.00 85.00,191.00
             85.00,191.00 234.00,191.00 234.00,191.00
             234.00,191.00 316.00,191.00 316.00,191.00
             316.00,191.00 331.00,192.00 331.00,192.00
             331.00,192.00 573.00,192.00 573.00,192.00
             573.00,192.00 588.00,193.00 588.00,193.00
             612.45,193.28 633.22,190.85 656.00,202.27
             673.78,211.18 687.97,230.22 701.16,245.00
             701.16,245.00 769.58,323.00 769.58,323.00
             769.58,323.00 793.85,351.00 793.85,351.00
             793.85,351.00 805.17,363.44 805.17,363.44
             808.12,365.65 815.20,366.89 819.00,367.88
             819.00,367.88 844.00,376.05 844.00,376.05
             876.69,388.27 919.25,407.59 939.25,437.00
             950.34,453.29 957.75,474.55 960.57,494.00
             960.57,494.00 963.34,523.00 963.34,523.00
             965.31,532.08 972.83,530.18 976.79,539.00
             980.20,546.61 979.00,565.94 979.00,575.00
             979.00,575.00 979.00,607.00 979.00,607.00
             978.99,608.79 979.06,611.25 978.40,612.91
             977.25,615.81 968.92,623.33 966.00,624.40
             964.06,625.12 961.09,625.00 959.00,625.00
             959.00,625.00 891.00,625.00 891.00,625.00
             891.00,625.00 891.00,612.00 891.00,612.00
             890.96,584.04 880.58,555.84 861.83,535.00
             852.10,524.19 840.05,514.34 827.00,507.81
             805.09,496.85 789.81,495.73 766.00,496.00
             727.00,496.46 688.22,526.44 670.78,560.00
             659.51,581.69 659.00,601.36 659.00,625.00
             659.00,625.00 288.00,625.00 288.00,625.00
             288.00,589.35 282.57,561.49 257.83,534.00
             240.99,515.29 217.76,502.13 193.00,497.46
             183.10,495.59 173.04,495.89 163.00,496.00
             153.96,496.11 140.49,499.06 132.00,502.23
             105.74,512.04 79.98,536.19 67.26,561.00
             56.11,582.74 56.00,601.41 56.00,625.00 Z
           M 82.00,236.60
           C 74.71,240.41 70.06,245.66 70.08,254.00
             70.08,254.00 70.08,305.00 70.08,305.00
             70.08,305.00 70.08,365.00 70.08,365.00
             70.00,366.65 69.94,369.46 70.08,371.00
             71.24,374.90 76.23,381.00 80.00,382.40
             81.92,383.11 84.93,383.00 87.00,383.00
             87.00,383.00 106.00,384.00 106.00,384.00
             106.00,384.00 218.00,384.00 218.00,384.00
             218.00,384.00 248.00,383.17 248.00,383.17
             253.53,382.64 257.86,383.47 262.90,380.01
             269.58,375.41 269.99,360.57 270.00,353.00
             270.00,353.00 270.00,265.00 270.00,265.00
             269.93,258.93 268.94,245.59 264.72,241.22
             259.20,235.51 246.50,237.08 239.00,237.00
             239.00,237.00 224.00,236.00 224.00,236.00
             224.00,236.00 132.00,236.00 132.00,236.00
             132.00,236.00 100.00,236.00 100.00,236.00
             94.56,236.00 87.14,235.50 82.00,236.60 Z
           M 334.00,236.09
           C 326.09,237.42 311.33,236.09 305.11,240.70
             297.93,246.02 299.09,260.00 299.00,268.00
             299.00,268.00 298.00,282.00 298.00,282.00
             298.00,282.00 298.00,313.00 298.00,313.00
             298.00,313.00 299.00,330.00 299.00,330.00
             299.00,330.00 299.00,365.00 299.00,365.00
             299.00,367.09 298.88,370.06 299.60,372.00
             300.87,375.46 306.54,381.13 310.00,382.40
             311.94,383.12 314.91,383.00 317.00,383.00
             317.00,383.00 423.00,383.00 423.00,383.00
             423.00,383.00 482.00,383.00 482.00,383.00
             483.89,383.00 487.01,383.14 488.72,382.43
             490.44,381.71 491.76,380.30 493.00,378.95
             497.86,373.66 497.99,371.80 498.00,365.00
             498.00,365.00 498.00,254.00 498.00,254.00
             497.98,242.62 491.38,236.02 480.00,236.09
             480.00,236.09 385.00,236.09 385.00,236.09
             385.00,236.09 334.00,236.09 334.00,236.09 Z
           M 721.00,332.00
           C 717.99,325.50 702.73,308.63 697.25,302.00
             697.25,302.00 671.27,271.00 671.27,271.00
             655.95,253.13 642.42,237.04 617.00,236.86
             617.00,236.86 569.00,236.86 569.00,236.86
             562.06,237.55 556.44,236.65 551.57,243.04
             547.34,248.60 548.36,256.48 547.91,263.00
             547.91,263.00 547.00,275.00 547.00,275.00
             547.00,275.00 547.00,342.00 547.00,342.00
             547.00,342.00 548.00,361.00 548.00,361.00
             548.06,365.50 548.57,373.36 551.43,376.90
             556.72,383.45 571.04,383.99 579.00,384.00
             579.00,384.00 650.00,384.00 650.00,384.00
             650.00,384.00 670.00,383.00 670.00,383.00
             670.00,383.00 670.84,353.00 670.84,353.00
             671.44,347.34 671.65,341.49 676.21,337.30
             679.75,334.05 684.53,334.19 689.00,333.58
             689.00,333.58 701.00,332.91 701.00,332.91
             701.00,332.91 721.00,332.00 721.00,332.00 Z
           M 872.28,417.60
           C 867.41,421.28 868.94,431.32 869.00,437.00
             869.21,454.27 879.43,467.68 896.00,472.56
             902.44,474.46 907.40,474.01 914.00,474.00
             918.16,473.99 925.49,474.04 928.40,470.57
             932.66,465.49 924.25,453.22 921.10,449.00
             912.54,437.51 902.29,426.73 889.00,420.86
             883.70,418.52 878.09,416.27 872.28,417.60 Z
           M 160.00,521.21
           C 160.00,521.21 171.00,521.21 171.00,521.21
             205.37,521.05 233.87,538.24 250.85,568.00
             256.83,578.49 260.85,588.76 261.00,601.00
             261.00,601.00 261.00,621.00 261.00,621.00
             260.93,636.75 253.35,653.42 244.26,666.00
             237.01,676.03 228.56,683.24 218.00,689.60
             207.73,695.78 195.93,700.15 184.00,701.71
             171.48,703.35 162.25,702.69 150.00,699.63
             139.44,696.98 128.83,692.24 120.00,685.84
             107.69,676.92 98.42,666.49 91.32,653.00
             70.08,612.63 84.00,562.62 121.00,536.72
             133.31,528.10 145.31,523.83 160.00,521.21 Z
           M 765.00,521.21
           C 765.00,521.21 776.00,521.21 776.00,521.21
             787.22,521.02 800.83,524.01 811.00,528.78
             828.16,536.83 842.75,548.56 852.55,565.00
             860.49,578.32 862.66,587.89 864.17,603.00
             867.70,638.33 852.46,670.13 822.00,688.94
             812.80,694.61 797.75,700.31 787.00,701.71
             741.19,707.69 698.36,677.72 687.13,633.00
             685.54,626.68 683.79,616.43 684.04,610.00
             685.15,581.36 699.92,554.35 723.00,537.49
             735.95,528.03 749.37,523.78 765.00,521.21 Z
           M 170.00,573.30
           C 158.37,575.15 151.16,577.55 143.33,587.00
             138.39,592.95 133.34,604.15 133.34,612.00
             133.34,623.77 143.11,638.87 153.00,644.79
             157.84,647.69 164.39,649.41 170.00,649.82
             173.48,650.07 179.63,648.97 183.00,647.96
             215.74,638.18 219.49,588.49 184.00,575.87
             179.46,574.25 174.82,573.05 170.00,573.30 Z
           M 773.00,573.30
           C 768.09,574.08 762.46,575.14 758.00,577.38
             748.10,582.34 739.15,595.07 737.32,606.00
             733.62,628.20 754.09,651.97 777.00,649.70
             783.60,649.05 790.56,647.09 796.00,643.21
             821.66,624.93 816.05,583.92 785.00,575.15
             780.54,573.90 777.67,573.06 773.00,573.30 Z" />
</svg>
