<svg width="273" height="142" viewBox="0 0 273 142" fill="none" xmlns="http://www.w3.org/2000/svg">
<mask id="path-1-outside-1_24_65" maskUnits="userSpaceOnUse" x="-0.580078" y="0.480713" width="273" height="142" fill="black">
<rect fill="white" x="-0.580078" y="0.480713" width="273" height="142"/>
<path d="M85.0755 2.48073C92.2511 2.47747 99.4409 2.85147 106.575 4.4905C113.138 6.06673 122.476 9.45353 122.167 18.3421C119.698 31.6822 108.115 38.9729 98.6223 46.343C93.3904 50.0695 87.9463 53.5022 82.3284 56.6165C90.6725 57.5529 98.6101 61.721 105.237 66.6692C108.115 69.0523 110.643 71.9194 112.49 75.2171C112.886 75.9245 113.103 76.7234 113.125 77.5901C112.821 77.7262 112.516 77.8622 112.212 77.9983C111.593 77.4321 111.113 76.8511 110.745 76.1956C109.035 73.1416 106.679 70.4596 103.96 68.2083C97.1209 62.8202 87.6643 58.6929 78.9348 58.4426C77.5942 59.1399 76.2396 59.8144 74.8596 60.4612C73.3897 61.145 72.0374 61.7415 70.5237 62.2952C69.8104 62.5508 69.0191 62.8197 68.177 62.9827C67.9367 63.0276 67.7117 63.0584 67.4925 63.0696C67.2509 63.0794 66.8253 63.0894 66.4182 62.8782C66.1695 62.774 65.7762 62.3558 65.7288 61.9495C65.6727 61.4796 65.7427 61.4023 65.7893 61.2093C65.8858 60.8923 66.1254 60.536 66.2073 60.4241C66.7855 59.6514 67.2212 59.1947 68.0022 58.5481C71.1692 55.9265 74.8995 56.4888 78.3137 56.426C94.5486 48.1466 114.523 35.9801 120.169 18.2464C120.59 11.2703 112.612 7.94789 106.116 6.43679C99.2451 4.85549 92.159 4.47507 85.0833 4.48073C70.9412 4.57978 56.7542 6.36816 42.8938 9.34694C30.5056 12.2474 17.5964 15.1421 7.04714 22.4124C5.45393 23.6342 3.71288 25.3452 3.06863 27.3001C2.34366 29.3935 3.11155 31.5424 4.66823 33.2942C3.00086 31.6724 1.97506 29.5005 2.60964 27.1663C3.16243 25.0001 4.91002 23.0938 6.48269 21.7249C16.9723 13.5918 29.959 10.3285 42.469 7.39284C56.4655 4.38615 70.7478 2.58244 85.0755 2.48073ZM73.4837 58.8362C72.0516 59.0998 70.6885 59.0339 69.3343 60.0403C68.8065 60.4325 68.5028 60.7975 68.1321 61.219C68.0059 61.362 67.9456 61.4395 67.8343 61.5872C66.3571 63.5467 71.4921 59.814 73.4837 58.8362Z"/>
<path d="M66.1615 29.2116C66.4986 29.2091 66.6719 29.2337 66.681 29.2858C66.814 30.0836 66.9426 30.8823 67.0677 31.6813C68.2788 39.4156 69.1607 47.2049 70.4476 54.9264C71.6562 62.1777 73.3572 69.3471 74.5658 76.5983C74.6203 76.9253 74.6626 77.2544 74.6917 77.5856C74.7674 78.4466 74.7572 79.3221 74.6615 80.2116C74.3327 80.2664 74.0039 80.3209 73.6751 80.3757C73.2961 79.5654 73.0029 78.7409 72.7953 77.902C72.7154 77.5792 72.6476 77.2535 72.5931 76.9264C71.3846 69.6753 70.6698 62.3417 69.4613 55.0905C68.1743 47.3689 66.4823 39.7145 65.1195 32.0055C64.9787 31.2093 64.8413 30.4125 64.7084 29.6149C64.6996 29.5627 64.8551 29.4827 65.1752 29.3757C65.5039 29.3209 65.8327 29.2664 66.1615 29.2116Z"/>
<path d="M177.256 55.8812C179.624 54.8257 182.287 54.5752 184.805 55.0658C186.112 55.328 187.4 55.7754 188.574 56.5648C189.674 57.3079 191.065 58.7217 190.637 60.6576C189.988 60.5044 189.338 60.3517 188.689 60.1986C189.057 58.9154 186.51 57.3653 184.419 57.0277C182.298 56.6121 180.028 56.8312 178.07 57.7074C174.336 59.4023 170.835 61.7976 167.748 64.5482C166.214 65.9342 164.765 67.4339 163.639 69.0814C162.526 70.6683 161.749 72.7653 162.821 73.5413C163.425 74.0638 164.568 74.4216 165.64 74.6283C173.607 75.7272 183.982 74.0359 188.035 67.0052C188.33 66.3974 188.547 65.7611 188.685 65.0931L188.689 65.0941C188.698 65.0554 188.706 65.0165 188.715 64.9779L190.642 65.4945C190.613 65.6335 190.581 65.7714 190.547 65.9085C185.866 87.4651 183.651 110.204 182.531 132.544C182.553 134.963 182.305 137.547 183.163 139.794C182.181 137.578 182.305 134.97 182.169 132.546C182.255 111.905 183.585 91.3125 187.508 70.8841C181.852 76.724 172.911 77.5156 165.258 76.5911C164.02 76.3252 162.729 76.0445 161.505 75.0462C160.319 74.1007 160.11 72.2934 160.457 71.1331C160.776 69.8943 161.353 68.9019 161.982 67.9593C163.259 66.0959 164.794 64.5237 166.41 63.0609C169.661 60.1698 173.261 57.6982 177.256 55.8812Z"/>
<path d="M130.951 60.711C136.123 58.8667 141.437 56.1868 147.208 56.6426C148.803 56.7951 150.246 58.1867 150.169 59.794C150.107 58.1732 148.68 57.0177 147.164 56.961C141.609 56.8864 136.553 59.7618 131.387 61.876C128.833 62.8781 126.226 63.7608 124.193 65.2999C121.999 66.8063 121.785 69.2292 123.407 71.2823C126.778 75.3771 133.771 74.4472 139.082 73.0557C142.329 72.119 145.666 70.7996 148.018 68.6426C148.263 68.4096 148.434 68.2581 148.777 68.0626C148.952 67.9684 149.119 67.898 149.342 67.8497C149.591 67.7968 149.865 67.7995 150.12 67.8741C150.375 67.9458 150.611 68.0961 150.769 68.2423C150.918 68.3779 151.038 68.5289 151.14 68.6876C151.308 68.9477 151.439 69.2693 151.515 69.4981C151.847 70.5234 151.938 71.4878 152.02 72.4317C152.165 74.3222 152.155 76.1833 152.13 78.043C152.079 81.752 151.848 85.4428 151.948 89.1231C151.974 89.8747 152.024 90.6784 152.138 91.4141C152.171 91.6171 152.208 91.8067 152.248 91.9805C152.291 92.1669 152.35 92.3673 152.411 92.5264C152.558 92.8884 152.748 93.2599 153.169 93.294C152.743 93.3072 152.485 92.9362 152.3 92.5762C152.218 92.4188 152.137 92.2179 152.073 92.0313C152.012 91.8578 151.955 91.6679 151.902 91.4639C151.708 90.7263 151.582 89.9179 151.483 89.1622C151.034 85.4603 150.978 81.7442 150.8 78.0635C150.712 76.222 150.62 74.3793 150.4 72.5977C150.287 71.7221 150.139 70.7995 149.872 70.087C149.813 69.9316 149.722 69.7437 149.659 69.6602L149.655 69.6563C149.562 69.7154 149.462 69.7976 149.319 69.9444C146.536 72.6252 143.082 73.9621 139.62 74.9815C133.973 76.3247 126.631 77.8535 121.931 72.3048C121.109 71.0801 120.394 69.5647 120.635 67.8526C120.883 66.1413 122.086 64.8859 123.26 64.045C125.676 62.3551 128.405 61.5917 130.951 60.711Z"/>
<path d="M207.734 8.29956C207.644 9.63602 207.569 10.918 207.502 12.2517C206.453 30.3418 208.475 48.3356 209.108 66.4792C209.296 72.1074 209.388 77.7656 209.277 83.4011C209.25 84.7476 209.216 86.0358 209.166 87.3845C208.168 87.3243 207.17 87.2631 206.172 87.2029C206.284 85.8735 206.383 84.6039 206.478 83.2751C206.875 77.7135 207.098 72.1082 207.108 66.5105C207.115 48.4788 205.62 30.2978 207.245 12.2351C207.354 10.9024 207.471 9.62173 207.604 8.28784C207.647 8.29148 207.691 8.29593 207.734 8.29956Z"/>
<path d="M221.391 55.1765C222.347 60.9495 222.54 66.8997 223.28 72.4949C223.636 74.8963 224.259 77.1454 225.408 79.3035C225.614 79.6998 225.834 80.0948 226.068 80.4939C225.802 80.6939 225.534 80.8935 225.268 81.0935C224.939 80.7415 224.627 80.3817 224.33 80.0076C222.681 77.983 221.67 75.3649 221.304 72.8005C220.523 66.837 220.926 61.0528 221.107 55.1921C221.127 54.7359 221.148 54.2699 221.168 53.7937C221.246 54.2641 221.32 54.725 221.391 55.1765Z"/>
<path d="M254.358 50.0275C257.671 48.7335 261.502 50.6387 263.383 53.1945C267.895 59.2456 268.671 66.7302 268.793 73.7834C268.963 84.2086 267.887 94.6823 268.576 104.964C268.801 106.652 269.107 108.473 270.317 109.617C270.218 109.733 270.118 109.849 270.019 109.965C268.565 108.698 268.201 106.787 267.886 105.063C266.73 94.5943 267.5 84.1962 267.146 73.802C266.941 66.9575 265.968 59.66 261.96 54.3469C260.234 52.1097 257.506 50.7848 254.92 51.7238C252.32 52.5954 250.185 54.855 248.46 57.1975C244.989 62.0363 242.693 67.6837 240.704 73.4621L239.614 73.3928C239.299 71.4463 238.987 69.4985 238.678 67.551C238.402 65.8171 238.129 64.0827 237.858 62.3479C238.064 62.3104 238.271 62.273 238.478 62.2356C238.835 63.9545 239.189 65.674 239.542 67.3938C239.791 68.6065 240.036 69.8203 240.282 71.0334C241.947 65.8469 243.979 60.7993 247.115 56.2346C248.908 53.732 251.107 51.1837 254.358 50.0275Z"/>
<path d="M222.907 47.3361C222.907 47.9288 222.01 49.327 221.263 48.9794C220.517 48.6318 218.878 48.0775 219.62 47.3361C220.262 46.6947 220.417 45.4178 221.263 45.6928C222.11 45.9677 222.907 46.7433 222.907 47.3361Z"/>
</mask>
<path d="M85.0755 2.48073C92.2511 2.47747 99.4409 2.85147 106.575 4.4905C113.138 6.06673 122.476 9.45353 122.167 18.3421C119.698 31.6822 108.115 38.9729 98.6223 46.343C93.3904 50.0695 87.9463 53.5022 82.3284 56.6165C90.6725 57.5529 98.6101 61.721 105.237 66.6692C108.115 69.0523 110.643 71.9194 112.49 75.2171C112.886 75.9245 113.103 76.7234 113.125 77.5901C112.821 77.7262 112.516 77.8622 112.212 77.9983C111.593 77.4321 111.113 76.8511 110.745 76.1956C109.035 73.1416 106.679 70.4596 103.96 68.2083C97.1209 62.8202 87.6643 58.6929 78.9348 58.4426C77.5942 59.1399 76.2396 59.8144 74.8596 60.4612C73.3897 61.145 72.0374 61.7415 70.5237 62.2952C69.8104 62.5508 69.0191 62.8197 68.177 62.9827C67.9367 63.0276 67.7117 63.0584 67.4925 63.0696C67.2509 63.0794 66.8253 63.0894 66.4182 62.8782C66.1695 62.774 65.7762 62.3558 65.7288 61.9495C65.6727 61.4796 65.7427 61.4023 65.7893 61.2093C65.8858 60.8923 66.1254 60.536 66.2073 60.4241C66.7855 59.6514 67.2212 59.1947 68.0022 58.5481C71.1692 55.9265 74.8995 56.4888 78.3137 56.426C94.5486 48.1466 114.523 35.9801 120.169 18.2464C120.59 11.2703 112.612 7.94789 106.116 6.43679C99.2451 4.85549 92.159 4.47507 85.0833 4.48073C70.9412 4.57978 56.7542 6.36816 42.8938 9.34694C30.5056 12.2474 17.5964 15.1421 7.04714 22.4124C5.45393 23.6342 3.71288 25.3452 3.06863 27.3001C2.34366 29.3935 3.11155 31.5424 4.66823 33.2942C3.00086 31.6724 1.97506 29.5005 2.60964 27.1663C3.16243 25.0001 4.91002 23.0938 6.48269 21.7249C16.9723 13.5918 29.959 10.3285 42.469 7.39284C56.4655 4.38615 70.7478 2.58244 85.0755 2.48073ZM73.4837 58.8362C72.0516 59.0998 70.6885 59.0339 69.3343 60.0403C68.8065 60.4325 68.5028 60.7975 68.1321 61.219C68.0059 61.362 67.9456 61.4395 67.8343 61.5872C66.3571 63.5467 71.4921 59.814 73.4837 58.8362Z" fill="black"/>
<path d="M66.1615 29.2116C66.4986 29.2091 66.6719 29.2337 66.681 29.2858C66.814 30.0836 66.9426 30.8823 67.0677 31.6813C68.2788 39.4156 69.1607 47.2049 70.4476 54.9264C71.6562 62.1777 73.3572 69.3471 74.5658 76.5983C74.6203 76.9253 74.6626 77.2544 74.6917 77.5856C74.7674 78.4466 74.7572 79.3221 74.6615 80.2116C74.3327 80.2664 74.0039 80.3209 73.6751 80.3757C73.2961 79.5654 73.0029 78.7409 72.7953 77.902C72.7154 77.5792 72.6476 77.2535 72.5931 76.9264C71.3846 69.6753 70.6698 62.3417 69.4613 55.0905C68.1743 47.3689 66.4823 39.7145 65.1195 32.0055C64.9787 31.2093 64.8413 30.4125 64.7084 29.6149C64.6996 29.5627 64.8551 29.4827 65.1752 29.3757C65.5039 29.3209 65.8327 29.2664 66.1615 29.2116Z" fill="black"/>
<path d="M177.256 55.8812C179.624 54.8257 182.287 54.5752 184.805 55.0658C186.112 55.328 187.4 55.7754 188.574 56.5648C189.674 57.3079 191.065 58.7217 190.637 60.6576C189.988 60.5044 189.338 60.3517 188.689 60.1986C189.057 58.9154 186.51 57.3653 184.419 57.0277C182.298 56.6121 180.028 56.8312 178.07 57.7074C174.336 59.4023 170.835 61.7976 167.748 64.5482C166.214 65.9342 164.765 67.4339 163.639 69.0814C162.526 70.6683 161.749 72.7653 162.821 73.5413C163.425 74.0638 164.568 74.4216 165.64 74.6283C173.607 75.7272 183.982 74.0359 188.035 67.0052C188.33 66.3974 188.547 65.7611 188.685 65.0931L188.689 65.0941C188.698 65.0554 188.706 65.0165 188.715 64.9779L190.642 65.4945C190.613 65.6335 190.581 65.7714 190.547 65.9085C185.866 87.4651 183.651 110.204 182.531 132.544C182.553 134.963 182.305 137.547 183.163 139.794C182.181 137.578 182.305 134.97 182.169 132.546C182.255 111.905 183.585 91.3125 187.508 70.8841C181.852 76.724 172.911 77.5156 165.258 76.5911C164.02 76.3252 162.729 76.0445 161.505 75.0462C160.319 74.1007 160.11 72.2934 160.457 71.1331C160.776 69.8943 161.353 68.9019 161.982 67.9593C163.259 66.0959 164.794 64.5237 166.41 63.0609C169.661 60.1698 173.261 57.6982 177.256 55.8812Z" fill="black"/>
<path d="M130.951 60.711C136.123 58.8667 141.437 56.1868 147.208 56.6426C148.803 56.7951 150.246 58.1867 150.169 59.794C150.107 58.1732 148.68 57.0177 147.164 56.961C141.609 56.8864 136.553 59.7618 131.387 61.876C128.833 62.8781 126.226 63.7608 124.193 65.2999C121.999 66.8063 121.785 69.2292 123.407 71.2823C126.778 75.3771 133.771 74.4472 139.082 73.0557C142.329 72.119 145.666 70.7996 148.018 68.6426C148.263 68.4096 148.434 68.2581 148.777 68.0626C148.952 67.9684 149.119 67.898 149.342 67.8497C149.591 67.7968 149.865 67.7995 150.12 67.8741C150.375 67.9458 150.611 68.0961 150.769 68.2423C150.918 68.3779 151.038 68.5289 151.14 68.6876C151.308 68.9477 151.439 69.2693 151.515 69.4981C151.847 70.5234 151.938 71.4878 152.02 72.4317C152.165 74.3222 152.155 76.1833 152.13 78.043C152.079 81.752 151.848 85.4428 151.948 89.1231C151.974 89.8747 152.024 90.6784 152.138 91.4141C152.171 91.6171 152.208 91.8067 152.248 91.9805C152.291 92.1669 152.35 92.3673 152.411 92.5264C152.558 92.8884 152.748 93.2599 153.169 93.294C152.743 93.3072 152.485 92.9362 152.3 92.5762C152.218 92.4188 152.137 92.2179 152.073 92.0313C152.012 91.8578 151.955 91.6679 151.902 91.4639C151.708 90.7263 151.582 89.9179 151.483 89.1622C151.034 85.4603 150.978 81.7442 150.8 78.0635C150.712 76.222 150.62 74.3793 150.4 72.5977C150.287 71.7221 150.139 70.7995 149.872 70.087C149.813 69.9316 149.722 69.7437 149.659 69.6602L149.655 69.6563C149.562 69.7154 149.462 69.7976 149.319 69.9444C146.536 72.6252 143.082 73.9621 139.62 74.9815C133.973 76.3247 126.631 77.8535 121.931 72.3048C121.109 71.0801 120.394 69.5647 120.635 67.8526C120.883 66.1413 122.086 64.8859 123.26 64.045C125.676 62.3551 128.405 61.5917 130.951 60.711Z" fill="black"/>
<path d="M207.734 8.29956C207.644 9.63602 207.569 10.918 207.502 12.2517C206.453 30.3418 208.475 48.3356 209.108 66.4792C209.296 72.1074 209.388 77.7656 209.277 83.4011C209.25 84.7476 209.216 86.0358 209.166 87.3845C208.168 87.3243 207.17 87.2631 206.172 87.2029C206.284 85.8735 206.383 84.6039 206.478 83.2751C206.875 77.7135 207.098 72.1082 207.108 66.5105C207.115 48.4788 205.62 30.2978 207.245 12.2351C207.354 10.9024 207.471 9.62173 207.604 8.28784C207.647 8.29148 207.691 8.29593 207.734 8.29956Z" fill="black"/>
<path d="M221.391 55.1765C222.347 60.9495 222.54 66.8997 223.28 72.4949C223.636 74.8963 224.259 77.1454 225.408 79.3035C225.614 79.6998 225.834 80.0948 226.068 80.4939C225.802 80.6939 225.534 80.8935 225.268 81.0935C224.939 80.7415 224.627 80.3817 224.33 80.0076C222.681 77.983 221.67 75.3649 221.304 72.8005C220.523 66.837 220.926 61.0528 221.107 55.1921C221.127 54.7359 221.148 54.2699 221.168 53.7937C221.246 54.2641 221.32 54.725 221.391 55.1765Z" fill="black"/>
<path d="M254.358 50.0275C257.671 48.7335 261.502 50.6387 263.383 53.1945C267.895 59.2456 268.671 66.7302 268.793 73.7834C268.963 84.2086 267.887 94.6823 268.576 104.964C268.801 106.652 269.107 108.473 270.317 109.617C270.218 109.733 270.118 109.849 270.019 109.965C268.565 108.698 268.201 106.787 267.886 105.063C266.73 94.5943 267.5 84.1962 267.146 73.802C266.941 66.9575 265.968 59.66 261.96 54.3469C260.234 52.1097 257.506 50.7848 254.92 51.7238C252.32 52.5954 250.185 54.855 248.46 57.1975C244.989 62.0363 242.693 67.6837 240.704 73.4621L239.614 73.3928C239.299 71.4463 238.987 69.4985 238.678 67.551C238.402 65.8171 238.129 64.0827 237.858 62.3479C238.064 62.3104 238.271 62.273 238.478 62.2356C238.835 63.9545 239.189 65.674 239.542 67.3938C239.791 68.6065 240.036 69.8203 240.282 71.0334C241.947 65.8469 243.979 60.7993 247.115 56.2346C248.908 53.732 251.107 51.1837 254.358 50.0275Z" fill="black"/>
<path d="M222.907 47.3361C222.907 47.9288 222.01 49.327 221.263 48.9794C220.517 48.6318 218.878 48.0775 219.62 47.3361C220.262 46.6947 220.417 45.4178 221.263 45.6928C222.11 45.9677 222.907 46.7433 222.907 47.3361Z" fill="black"/>
<path d="M85.0755 2.48073C92.2511 2.47747 99.4409 2.85147 106.575 4.4905C113.138 6.06673 122.476 9.45353 122.167 18.3421C119.698 31.6822 108.115 38.9729 98.6223 46.343C93.3904 50.0695 87.9463 53.5022 82.3284 56.6165C90.6725 57.5529 98.6101 61.721 105.237 66.6692C108.115 69.0523 110.643 71.9194 112.49 75.2171C112.886 75.9245 113.103 76.7234 113.125 77.5901C112.821 77.7262 112.516 77.8622 112.212 77.9983C111.593 77.4321 111.113 76.8511 110.745 76.1956C109.035 73.1416 106.679 70.4596 103.96 68.2083C97.1209 62.8202 87.6643 58.6929 78.9348 58.4426C77.5942 59.1399 76.2396 59.8144 74.8596 60.4612C73.3897 61.145 72.0374 61.7415 70.5237 62.2952C69.8104 62.5508 69.0191 62.8197 68.177 62.9827C67.9367 63.0276 67.7117 63.0584 67.4925 63.0696C67.2509 63.0794 66.8253 63.0894 66.4182 62.8782C66.1695 62.774 65.7762 62.3558 65.7288 61.9495C65.6727 61.4796 65.7427 61.4023 65.7893 61.2093C65.8858 60.8923 66.1254 60.536 66.2073 60.4241C66.7855 59.6514 67.2212 59.1947 68.0022 58.5481C71.1692 55.9265 74.8995 56.4888 78.3137 56.426C94.5486 48.1466 114.523 35.9801 120.169 18.2464C120.59 11.2703 112.612 7.94789 106.116 6.43679C99.2451 4.85549 92.159 4.47507 85.0833 4.48073C70.9412 4.57978 56.7542 6.36816 42.8938 9.34694C30.5056 12.2474 17.5964 15.1421 7.04714 22.4124C5.45393 23.6342 3.71288 25.3452 3.06863 27.3001C2.34366 29.3935 3.11155 31.5424 4.66823 33.2942C3.00086 31.6724 1.97506 29.5005 2.60964 27.1663C3.16243 25.0001 4.91002 23.0938 6.48269 21.7249C16.9723 13.5918 29.959 10.3285 42.469 7.39284C56.4655 4.38615 70.7478 2.58244 85.0755 2.48073ZM73.4837 58.8362C72.0516 59.0998 70.6885 59.0339 69.3343 60.0403C68.8065 60.4325 68.5028 60.7975 68.1321 61.219C68.0059 61.362 67.9456 61.4395 67.8343 61.5872C66.3571 63.5467 71.4921 59.814 73.4837 58.8362Z" stroke="black" stroke-width="4" stroke-linejoin="round" mask="url(#path-1-outside-1_24_65)"/>
<path d="M66.1615 29.2116C66.4986 29.2091 66.6719 29.2337 66.681 29.2858C66.814 30.0836 66.9426 30.8823 67.0677 31.6813C68.2788 39.4156 69.1607 47.2049 70.4476 54.9264C71.6562 62.1777 73.3572 69.3471 74.5658 76.5983C74.6203 76.9253 74.6626 77.2544 74.6917 77.5856C74.7674 78.4466 74.7572 79.3221 74.6615 80.2116C74.3327 80.2664 74.0039 80.3209 73.6751 80.3757C73.2961 79.5654 73.0029 78.7409 72.7953 77.902C72.7154 77.5792 72.6476 77.2535 72.5931 76.9264C71.3846 69.6753 70.6698 62.3417 69.4613 55.0905C68.1743 47.3689 66.4823 39.7145 65.1195 32.0055C64.9787 31.2093 64.8413 30.4125 64.7084 29.6149C64.6996 29.5627 64.8551 29.4827 65.1752 29.3757C65.5039 29.3209 65.8327 29.2664 66.1615 29.2116Z" stroke="black" stroke-width="4" stroke-linejoin="round" mask="url(#path-1-outside-1_24_65)"/>
<path d="M177.256 55.8812C179.624 54.8257 182.287 54.5752 184.805 55.0658C186.112 55.328 187.4 55.7754 188.574 56.5648C189.674 57.3079 191.065 58.7217 190.637 60.6576C189.988 60.5044 189.338 60.3517 188.689 60.1986C189.057 58.9154 186.51 57.3653 184.419 57.0277C182.298 56.6121 180.028 56.8312 178.07 57.7074C174.336 59.4023 170.835 61.7976 167.748 64.5482C166.214 65.9342 164.765 67.4339 163.639 69.0814C162.526 70.6683 161.749 72.7653 162.821 73.5413C163.425 74.0638 164.568 74.4216 165.64 74.6283C173.607 75.7272 183.982 74.0359 188.035 67.0052C188.33 66.3974 188.547 65.7611 188.685 65.0931L188.689 65.0941C188.698 65.0554 188.706 65.0165 188.715 64.9779L190.642 65.4945C190.613 65.6335 190.581 65.7714 190.547 65.9085C185.866 87.4651 183.651 110.204 182.531 132.544C182.553 134.963 182.305 137.547 183.163 139.794C182.181 137.578 182.305 134.97 182.169 132.546C182.255 111.905 183.585 91.3125 187.508 70.8841C181.852 76.724 172.911 77.5156 165.258 76.5911C164.02 76.3252 162.729 76.0445 161.505 75.0462C160.319 74.1007 160.11 72.2934 160.457 71.1331C160.776 69.8943 161.353 68.9019 161.982 67.9593C163.259 66.0959 164.794 64.5237 166.41 63.0609C169.661 60.1698 173.261 57.6982 177.256 55.8812Z" stroke="black" stroke-width="4" stroke-linejoin="round" mask="url(#path-1-outside-1_24_65)"/>
<path d="M130.951 60.711C136.123 58.8667 141.437 56.1868 147.208 56.6426C148.803 56.7951 150.246 58.1867 150.169 59.794C150.107 58.1732 148.68 57.0177 147.164 56.961C141.609 56.8864 136.553 59.7618 131.387 61.876C128.833 62.8781 126.226 63.7608 124.193 65.2999C121.999 66.8063 121.785 69.2292 123.407 71.2823C126.778 75.3771 133.771 74.4472 139.082 73.0557C142.329 72.119 145.666 70.7996 148.018 68.6426C148.263 68.4096 148.434 68.2581 148.777 68.0626C148.952 67.9684 149.119 67.898 149.342 67.8497C149.591 67.7968 149.865 67.7995 150.12 67.8741C150.375 67.9458 150.611 68.0961 150.769 68.2423C150.918 68.3779 151.038 68.5289 151.14 68.6876C151.308 68.9477 151.439 69.2693 151.515 69.4981C151.847 70.5234 151.938 71.4878 152.02 72.4317C152.165 74.3222 152.155 76.1833 152.13 78.043C152.079 81.752 151.848 85.4428 151.948 89.1231C151.974 89.8747 152.024 90.6784 152.138 91.4141C152.171 91.6171 152.208 91.8067 152.248 91.9805C152.291 92.1669 152.35 92.3673 152.411 92.5264C152.558 92.8884 152.748 93.2599 153.169 93.294C152.743 93.3072 152.485 92.9362 152.3 92.5762C152.218 92.4188 152.137 92.2179 152.073 92.0313C152.012 91.8578 151.955 91.6679 151.902 91.4639C151.708 90.7263 151.582 89.9179 151.483 89.1622C151.034 85.4603 150.978 81.7442 150.8 78.0635C150.712 76.222 150.62 74.3793 150.4 72.5977C150.287 71.7221 150.139 70.7995 149.872 70.087C149.813 69.9316 149.722 69.7437 149.659 69.6602L149.655 69.6563C149.562 69.7154 149.462 69.7976 149.319 69.9444C146.536 72.6252 143.082 73.9621 139.62 74.9815C133.973 76.3247 126.631 77.8535 121.931 72.3048C121.109 71.0801 120.394 69.5647 120.635 67.8526C120.883 66.1413 122.086 64.8859 123.26 64.045C125.676 62.3551 128.405 61.5917 130.951 60.711Z" stroke="black" stroke-width="4" stroke-linejoin="round" mask="url(#path-1-outside-1_24_65)"/>
<path d="M207.734 8.29956C207.644 9.63602 207.569 10.918 207.502 12.2517C206.453 30.3418 208.475 48.3356 209.108 66.4792C209.296 72.1074 209.388 77.7656 209.277 83.4011C209.25 84.7476 209.216 86.0358 209.166 87.3845C208.168 87.3243 207.17 87.2631 206.172 87.2029C206.284 85.8735 206.383 84.6039 206.478 83.2751C206.875 77.7135 207.098 72.1082 207.108 66.5105C207.115 48.4788 205.62 30.2978 207.245 12.2351C207.354 10.9024 207.471 9.62173 207.604 8.28784C207.647 8.29148 207.691 8.29593 207.734 8.29956Z" stroke="black" stroke-width="4" stroke-linejoin="round" mask="url(#path-1-outside-1_24_65)"/>
<path d="M221.391 55.1765C222.347 60.9495 222.54 66.8997 223.28 72.4949C223.636 74.8963 224.259 77.1454 225.408 79.3035C225.614 79.6998 225.834 80.0948 226.068 80.4939C225.802 80.6939 225.534 80.8935 225.268 81.0935C224.939 80.7415 224.627 80.3817 224.33 80.0076C222.681 77.983 221.67 75.3649 221.304 72.8005C220.523 66.837 220.926 61.0528 221.107 55.1921C221.127 54.7359 221.148 54.2699 221.168 53.7937C221.246 54.2641 221.32 54.725 221.391 55.1765Z" stroke="black" stroke-width="4" stroke-linejoin="round" mask="url(#path-1-outside-1_24_65)"/>
<path d="M254.358 50.0275C257.671 48.7335 261.502 50.6387 263.383 53.1945C267.895 59.2456 268.671 66.7302 268.793 73.7834C268.963 84.2086 267.887 94.6823 268.576 104.964C268.801 106.652 269.107 108.473 270.317 109.617C270.218 109.733 270.118 109.849 270.019 109.965C268.565 108.698 268.201 106.787 267.886 105.063C266.73 94.5943 267.5 84.1962 267.146 73.802C266.941 66.9575 265.968 59.66 261.96 54.3469C260.234 52.1097 257.506 50.7848 254.92 51.7238C252.32 52.5954 250.185 54.855 248.46 57.1975C244.989 62.0363 242.693 67.6837 240.704 73.4621L239.614 73.3928C239.299 71.4463 238.987 69.4985 238.678 67.551C238.402 65.8171 238.129 64.0827 237.858 62.3479C238.064 62.3104 238.271 62.273 238.478 62.2356C238.835 63.9545 239.189 65.674 239.542 67.3938C239.791 68.6065 240.036 69.8203 240.282 71.0334C241.947 65.8469 243.979 60.7993 247.115 56.2346C248.908 53.732 251.107 51.1837 254.358 50.0275Z" stroke="black" stroke-width="4" stroke-linejoin="round" mask="url(#path-1-outside-1_24_65)"/>
<path d="M222.907 47.3361C222.907 47.9288 222.01 49.327 221.263 48.9794C220.517 48.6318 218.878 48.0775 219.62 47.3361C220.262 46.6947 220.417 45.4178 221.263 45.6928C222.11 45.9677 222.907 46.7433 222.907 47.3361Z" stroke="black" stroke-width="4" stroke-linejoin="round" mask="url(#path-1-outside-1_24_65)"/>
</svg>
